<svg width="211" height="137" viewBox="0 0 211 137" fill="none" xmlns="http://www.w3.org/2000/svg">
<path d="M31.5566 136.387C30.373 136.387 29.377 136.234 28.5684 135.93C27.7598 135.625 27.0977 135.18 26.582 134.594L26.5117 135.982C25.9727 135.982 25.4395 135.965 24.9121 135.93C24.3848 135.895 23.8516 135.877 23.3125 135.877V130.885H26.4941C26.5879 131.951 27.0391 132.748 27.8477 133.275C28.6562 133.791 29.5938 134.049 30.6602 134.049C31.4805 134.049 32.1543 133.896 32.6816 133.592C33.209 133.287 33.4727 132.871 33.4727 132.344C33.4727 131.875 33.2266 131.488 32.7344 131.184C32.2539 130.879 31.6211 130.598 30.8359 130.34C30.0625 130.07 29.2363 129.783 28.3574 129.479C27.3145 129.104 26.4121 128.711 25.6504 128.301C24.8887 127.891 24.3027 127.387 23.8926 126.789C23.4824 126.191 23.2773 125.424 23.2773 124.486C23.2773 123.021 23.8164 121.855 24.8945 120.988C25.9727 120.121 27.502 119.688 29.4824 119.688C30.5137 119.688 31.4746 119.822 32.3652 120.092C33.2676 120.35 33.9707 120.742 34.4746 121.27C34.498 121.176 34.5273 121.023 34.5625 120.812C34.6094 120.59 34.6504 120.385 34.6855 120.197C34.7324 120.01 34.7559 119.916 34.7559 119.916C34.7559 119.916 34.9199 119.934 35.248 119.969C35.5879 119.992 35.9629 120.027 36.373 120.074C36.7949 120.109 37.1348 120.139 37.3926 120.162V124.873H34.6152C34.4277 124.018 33.9824 123.338 33.2793 122.834C32.5879 122.33 31.668 122.061 30.5195 122.025C29.5938 122.025 28.9199 122.201 28.498 122.553C28.0879 122.893 27.8828 123.285 27.8828 123.73C27.8828 124.293 28.2227 124.727 28.9023 125.031C29.582 125.336 30.5254 125.67 31.7324 126.033C33.1035 126.408 34.2637 126.818 35.2129 127.264C36.1738 127.697 36.9004 128.242 37.3926 128.898C37.8848 129.543 38.1309 130.381 38.1309 131.412C38.1309 132.584 37.8145 133.539 37.1816 134.277C36.5488 135.004 35.7285 135.537 34.7207 135.877C33.7246 136.217 32.6699 136.387 31.5566 136.387ZM50.2246 136.527C48.3848 136.527 46.7793 136.182 45.4082 135.49C44.0371 134.799 42.9766 133.826 42.2266 132.572C41.4766 131.307 41.1016 129.824 41.1016 128.125C41.1016 126.473 41.4766 125.014 42.2266 123.748C42.9766 122.482 43.9785 121.492 45.2324 120.777C46.4863 120.062 47.8691 119.705 49.3809 119.705C50.2598 119.705 51.1152 119.828 51.9473 120.074C52.791 120.32 53.5469 120.736 54.2148 121.322L54.4258 120.004C54.7188 120.016 55.0527 120.033 55.4277 120.057C55.8027 120.068 56.1836 120.086 56.5703 120.109C56.9688 120.121 57.3203 120.145 57.625 120.18V126.139H54.5664C54.4023 124.85 53.9922 123.895 53.3359 123.273C52.6914 122.652 51.8477 122.342 50.8047 122.342C49.457 122.342 48.4199 122.875 47.6934 123.941C46.9785 124.996 46.6211 126.379 46.6211 128.09C46.6211 129.848 46.9961 131.236 47.7461 132.256C48.5078 133.275 49.5625 133.785 50.9102 133.785C51.918 133.785 52.7207 133.498 53.3184 132.924C53.916 132.338 54.3027 131.518 54.4785 130.463L58.2227 130.938C57.8945 132.707 57.0273 134.084 55.6211 135.068C54.2148 136.041 52.416 136.527 50.2246 136.527ZM60.5254 136V133.152C61.3574 133.152 61.9316 133.123 62.248 133.064C62.5762 133.006 62.7637 132.871 62.8105 132.66C62.8691 132.438 62.8984 132.086 62.8984 131.605V123.854C62.8984 123.338 62.7168 123.045 62.3535 122.975C62.002 122.893 61.4102 122.852 60.5781 122.852V120.039C60.8359 120.039 61.1934 120.045 61.6504 120.057C62.1074 120.057 62.5234 120.062 62.8984 120.074C63.2734 120.074 63.4609 120.074 63.4609 120.074C64.1875 120.074 64.9258 120.062 65.6758 120.039C66.4258 120.016 67.1934 119.998 67.9785 119.986V123.344C68.5059 122.148 69.2676 121.24 70.2637 120.619C71.2598 119.986 72.4785 119.67 73.9199 119.67C74.4238 119.67 74.9746 119.717 75.5723 119.811V125.119C75.2793 125.096 74.9336 125.09 74.5352 125.102C74.1367 125.102 73.8027 125.113 73.5332 125.137C73.4043 124.656 73.1934 124.311 72.9004 124.1C72.6191 123.877 72.2266 123.766 71.7227 123.766C70.832 123.766 70.0879 124.105 69.4902 124.785C68.9043 125.453 68.5527 126.355 68.4355 127.492C68.4004 127.586 68.3711 127.773 68.3477 128.055C68.3359 128.336 68.3242 128.67 68.3125 129.057C68.3008 129.432 68.2891 129.818 68.2773 130.217C68.2773 130.604 68.2773 130.961 68.2773 131.289C68.2773 131.605 68.2773 131.846 68.2773 132.01C68.2773 132.607 68.4707 132.947 68.8574 133.029C69.2441 133.111 69.9355 133.152 70.9316 133.152V136C69.9941 136 69.0742 135.994 68.1719 135.982C67.2695 135.971 66.209 135.965 64.9902 135.965C64.0293 135.965 63.2207 135.971 62.5645 135.982C61.9199 135.994 61.2402 136 60.5254 136ZM77.5762 136V133.152C78.2324 133.141 78.7129 133.105 79.0176 133.047C79.334 132.988 79.5391 132.848 79.6328 132.625C79.7266 132.391 79.7734 132.027 79.7734 131.535V123.836C79.7734 123.344 79.6035 123.062 79.2637 122.992C78.9238 122.91 78.3906 122.863 77.6641 122.852C77.6641 122.371 77.6641 121.902 77.6641 121.445C77.6758 120.977 77.6816 120.508 77.6816 120.039C78.1621 120.039 78.625 120.045 79.0703 120.057C79.5273 120.057 79.9668 120.057 80.3887 120.057C81.1504 120.057 81.9238 120.051 82.709 120.039C83.5059 120.027 84.3145 120.004 85.1348 119.969V131.535C85.1348 132.25 85.2637 132.701 85.5215 132.889C85.7793 133.064 86.3359 133.152 87.1914 133.152V136C86.793 136 86.3535 136 85.873 136C85.3926 135.988 84.9004 135.982 84.3965 135.982C83.8926 135.982 83.4062 135.982 82.9375 135.982C82.4805 135.971 82.0762 135.965 81.7246 135.965C80.8691 135.965 80.1309 135.971 79.5098 135.982C78.8887 135.994 78.2441 136 77.5762 136ZM82.375 116.699C81.6953 116.699 81.127 116.471 80.6699 116.014C80.2246 115.557 80.002 115 80.002 114.344C80.002 113.688 80.2246 113.137 80.6699 112.691C81.127 112.246 81.6953 112.023 82.375 112.023C83.0547 112.023 83.6113 112.252 84.0449 112.709C84.4902 113.154 84.7129 113.705 84.7129 114.361C84.7129 115.029 84.4902 115.586 84.0449 116.031C83.6113 116.477 83.0547 116.699 82.375 116.699ZM95.5234 136.246L89.9688 124.469C89.7695 124.023 89.5879 123.707 89.4238 123.52C89.2598 123.332 89.0723 123.215 88.8613 123.168C88.7441 123.121 88.6035 123.104 88.4395 123.115C88.2754 123.115 88.1113 123.127 87.9473 123.15V120.039C88.7676 120.039 89.541 120.045 90.2676 120.057C90.9941 120.068 91.6445 120.074 92.2188 120.074C92.9805 120.074 93.7773 120.074 94.6094 120.074C95.4531 120.062 96.4023 120.051 97.457 120.039V122.887C96.9766 122.887 96.543 122.928 96.1562 123.01C95.7695 123.092 95.5293 123.262 95.4355 123.52C95.4824 123.684 95.541 123.865 95.6113 124.064C95.6816 124.252 95.7754 124.457 95.8926 124.68C96.0098 124.984 96.1914 125.43 96.4375 126.016C96.6953 126.59 96.9766 127.217 97.2812 127.896C97.5859 128.576 97.8789 129.227 98.1602 129.848C98.4414 130.457 98.6699 130.961 98.8457 131.359C99.0332 131.758 99.127 131.957 99.127 131.957C99.2207 131.758 99.3438 131.477 99.4961 131.113C99.6602 130.75 99.8418 130.346 100.041 129.9C100.252 129.443 100.463 128.975 100.674 128.494C100.896 128.014 101.107 127.551 101.307 127.105C101.506 126.648 101.688 126.238 101.852 125.875C102.016 125.512 102.139 125.23 102.221 125.031C102.49 124.445 102.666 123.941 102.748 123.52C102.666 123.273 102.484 123.109 102.203 123.027C101.934 122.934 101.371 122.887 100.516 122.887V120.039C101.5 120.051 102.338 120.062 103.029 120.074C103.721 120.086 104.447 120.092 105.209 120.092C105.713 120.092 106.234 120.086 106.773 120.074C107.324 120.062 107.898 120.051 108.496 120.039V122.887C108.004 122.898 107.629 122.945 107.371 123.027C107.125 123.098 106.926 123.227 106.773 123.414C106.621 123.602 106.475 123.848 106.334 124.152C106.205 124.445 106.018 124.85 105.771 125.365L100.762 136.246H95.5234ZM118.779 136.527C116.635 136.527 114.854 136.164 113.436 135.438C112.018 134.699 110.957 133.691 110.254 132.414C109.551 131.137 109.199 129.689 109.199 128.072C109.199 126.326 109.58 124.82 110.342 123.555C111.115 122.277 112.193 121.293 113.576 120.602C114.971 119.898 116.594 119.547 118.445 119.547C120.25 119.547 121.832 119.887 123.191 120.566C124.551 121.246 125.611 122.254 126.373 123.59C127.146 124.926 127.533 126.584 127.533 128.564L126.584 128.705H114.631C114.643 130.369 115.053 131.646 115.861 132.537C116.682 133.428 117.789 133.873 119.184 133.873C120.18 133.873 121.018 133.645 121.697 133.188C122.389 132.719 122.881 132.074 123.174 131.254L127.182 131.57C126.713 133.164 125.746 134.389 124.281 135.244C122.816 136.1 120.982 136.527 118.779 136.527ZM114.684 126.402H122.506C122.506 125.137 122.166 124.111 121.486 123.326C120.818 122.529 119.857 122.131 118.604 122.131C117.408 122.131 116.477 122.512 115.809 123.273C115.152 124.035 114.777 125.078 114.684 126.402ZM130.17 136C130.17 135.953 130.17 135.795 130.17 135.525C130.17 135.244 130.164 134.928 130.152 134.576C130.152 134.225 130.152 133.914 130.152 133.645C130.152 133.363 130.152 133.199 130.152 133.152C130.82 133.141 131.33 133.111 131.682 133.064C132.033 133.018 132.268 132.895 132.385 132.695C132.514 132.496 132.578 132.174 132.578 131.729V123.748C132.578 123.303 132.385 123.045 131.998 122.975C131.623 122.893 131.043 122.852 130.258 122.852C130.258 122.793 130.258 122.547 130.258 122.113C130.258 121.668 130.258 121.229 130.258 120.795C130.258 120.35 130.258 120.098 130.258 120.039C130.762 120.039 131.242 120.045 131.699 120.057C132.156 120.057 132.596 120.057 133.018 120.057C133.814 120.057 134.6 120.051 135.373 120.039C136.146 120.027 136.949 120.004 137.781 119.969V122.605C138.438 121.832 139.299 121.164 140.365 120.602C141.443 120.027 142.68 119.723 144.074 119.688C146.066 119.688 147.572 120.197 148.592 121.217C149.623 122.236 150.139 123.912 150.139 126.244V132.098C150.139 132.672 150.32 132.988 150.684 133.047C151.047 133.105 151.586 133.141 152.301 133.152V136C151.586 136 150.883 136 150.191 136C149.5 135.988 148.662 135.977 147.678 135.965C146.764 135.965 145.896 135.971 145.076 135.982C144.256 135.994 143.447 136 142.65 136V133.152C143.354 133.152 143.852 133.123 144.145 133.064C144.438 133.006 144.613 132.883 144.672 132.695C144.73 132.496 144.76 132.203 144.76 131.816V127C144.76 125.711 144.555 124.732 144.145 124.064C143.734 123.396 142.973 123.062 141.859 123.062C140.922 123.062 140.154 123.244 139.557 123.607C138.971 123.959 138.525 124.352 138.221 124.785C138.104 125.16 138.027 125.576 137.992 126.033C137.957 126.479 137.939 126.965 137.939 127.492V131.816C137.939 132.484 138.133 132.871 138.52 132.977C138.906 133.082 139.545 133.141 140.436 133.152V136C139.58 136 138.748 136 137.939 136C137.143 135.988 136.17 135.977 135.021 135.965C134.049 135.965 133.182 135.971 132.42 135.982C131.67 135.994 130.92 136 130.17 136ZM163.99 136.527C161.846 136.527 160.064 136.164 158.646 135.438C157.229 134.699 156.168 133.691 155.465 132.414C154.762 131.137 154.41 129.689 154.41 128.072C154.41 126.326 154.791 124.82 155.553 123.555C156.326 122.277 157.404 121.293 158.787 120.602C160.182 119.898 161.805 119.547 163.656 119.547C165.461 119.547 167.043 119.887 168.402 120.566C169.762 121.246 170.822 122.254 171.584 123.59C172.357 124.926 172.744 126.584 172.744 128.564L171.795 128.705H159.842C159.854 130.369 160.264 131.646 161.072 132.537C161.893 133.428 163 133.873 164.395 133.873C165.391 133.873 166.229 133.645 166.908 133.188C167.6 132.719 168.092 132.074 168.385 131.254L172.393 131.57C171.924 133.164 170.957 134.389 169.492 135.244C168.027 136.1 166.193 136.527 163.99 136.527ZM159.895 126.402H167.717C167.717 125.137 167.377 124.111 166.697 123.326C166.029 122.529 165.068 122.131 163.814 122.131C162.619 122.131 161.688 122.512 161.02 123.273C160.363 124.035 159.988 125.078 159.895 126.402ZM175.135 136V133.152C175.967 133.152 176.541 133.123 176.857 133.064C177.186 133.006 177.373 132.871 177.42 132.66C177.479 132.438 177.508 132.086 177.508 131.605V123.854C177.508 123.338 177.326 123.045 176.963 122.975C176.611 122.893 176.02 122.852 175.188 122.852V120.039C175.445 120.039 175.803 120.045 176.26 120.057C176.717 120.057 177.133 120.063 177.508 120.074C177.883 120.074 178.07 120.074 178.07 120.074C178.797 120.074 179.535 120.063 180.285 120.039C181.035 120.016 181.803 119.998 182.588 119.986V123.344C183.115 122.148 183.877 121.24 184.873 120.619C185.869 119.986 187.088 119.67 188.529 119.67C189.033 119.67 189.584 119.717 190.182 119.811V125.119C189.889 125.096 189.543 125.09 189.145 125.102C188.746 125.102 188.412 125.113 188.143 125.137C188.014 124.656 187.803 124.311 187.51 124.1C187.229 123.877 186.836 123.766 186.332 123.766C185.441 123.766 184.697 124.105 184.1 124.785C183.514 125.453 183.162 126.355 183.045 127.492C183.01 127.586 182.98 127.773 182.957 128.055C182.945 128.336 182.934 128.67 182.922 129.057C182.91 129.432 182.898 129.818 182.887 130.217C182.887 130.604 182.887 130.961 182.887 131.289C182.887 131.605 182.887 131.846 182.887 132.01C182.887 132.607 183.08 132.947 183.467 133.029C183.854 133.111 184.545 133.152 185.541 133.152V136C184.604 136 183.684 135.994 182.781 135.982C181.879 135.971 180.818 135.965 179.6 135.965C178.639 135.965 177.83 135.971 177.174 135.982C176.529 135.994 175.85 136 175.135 136Z" fill="#ECF1F7"/>
<path d="M101.692 69.9526C101.692 75.4849 101.021 80.1309 99.6777 83.8906C98.2812 87.5967 96.1597 90.6313 93.313 92.9946L99.3555 93.8003C99.3555 94.9819 99.3555 96.1636 99.3555 97.3452C99.3018 98.4731 99.2749 99.6548 99.2749 100.89L76.0718 100.89L76.0718 93.0752C82.1411 92.9678 86.7871 91.061 90.0098 87.355C93.1787 83.6489 94.7632 78.4658 94.7632 71.8057C94.7632 66.3271 93.6621 61.8691 91.46 58.4316C89.2041 54.9941 86.1694 53.2754 82.356 53.2754C79.5093 53.2754 77.2534 54.3496 75.5884 56.498C73.8696 58.6465 72.4194 61.4932 71.2378 65.0381C70.0562 68.5293 68.8745 72.3696 67.6929 76.5591C66.1353 81.6079 64.4702 85.8511 62.6978 89.2886C60.9253 92.7261 58.75 95.3042 56.1719 97.0229C53.5937 98.7417 50.3711 99.6011 46.5039 99.6011C40.8643 99.6011 36.1108 97.2646 32.2437 92.5918C28.3228 87.8652 26.3623 81.5542 26.3623 73.6587C26.3623 69.2544 26.9531 65.0918 28.1348 61.1709C29.2627 57.25 31.0889 54.0811 33.6133 51.6641C33.5059 51.6104 33.0225 51.4492 32.1631 51.1807C31.25 50.9121 30.3638 50.6436 29.5044 50.375C28.5913 50.1064 28.1348 49.9722 28.1348 49.9722C28.1348 49.9722 28.1616 49.5156 28.2153 48.6025C28.2153 47.6895 28.2153 46.7495 28.2153 45.7827C28.2153 44.7622 28.2422 44.1445 28.2959 43.9297L50.21 43.9297L50.21 51.5029C44.8389 51.7178 40.7031 53.5171 37.8027 56.9009C34.8486 60.2847 33.3716 65.1187 33.3716 71.4028C33.3716 76.7739 34.5532 80.7754 36.9165 83.4072C39.2798 86.0391 41.9922 87.355 45.0537 87.355C48.3838 87.355 50.9619 85.6631 52.7881 82.2793C54.5605 78.8955 56.145 74.5181 57.5415 69.147C59.0454 63.3462 60.6836 58.3242 62.4561 54.0811C64.1748 49.7842 66.4307 46.481 69.2236 44.1714C72.0166 41.8618 75.7495 40.707 80.4224 40.707C84.9878 40.707 88.855 41.9155 92.0239 44.3325C95.1929 46.7495 97.6099 50.1602 99.2749 54.5644C100.886 58.915 101.692 64.0444 101.692 69.9526Z" fill="#ECF1F7"/>
<path d="M108.808 69.4526C108.808 74.9849 109.479 79.6309 110.822 83.3906C112.219 87.0967 114.34 90.1313 117.187 92.4946L111.145 93.3003C111.145 94.4819 111.145 95.6636 111.145 96.8452C111.198 97.9731 111.225 99.1548 111.225 100.39L134.428 100.39L134.428 92.5752C128.359 92.4678 123.713 90.561 120.49 86.855C117.321 83.1489 115.737 77.9658 115.737 71.3057C115.737 65.8271 116.838 61.3691 119.04 57.9316C121.296 54.4941 124.331 52.7754 128.144 52.7754C130.991 52.7754 133.247 53.8496 134.912 55.998C136.63 58.1465 138.081 60.9932 139.262 64.5381C140.444 68.0293 141.625 71.8696 142.807 76.0591C144.365 81.1079 146.03 85.3511 147.802 88.7886C149.575 92.2261 151.75 94.8042 154.328 96.5229C156.906 98.2417 160.129 99.1011 163.996 99.1011C169.636 99.1011 174.389 96.7646 178.256 92.0918C182.177 87.3652 184.138 81.0542 184.138 73.1587C184.138 68.7544 183.547 64.5918 182.365 60.6709C181.237 56.75 179.411 53.5811 176.887 51.1641C176.994 51.1103 177.478 50.9492 178.337 50.6807C179.25 50.4121 180.136 50.1436 180.996 49.875C181.909 49.6064 182.365 49.4722 182.365 49.4722C182.365 49.4722 182.338 49.0156 182.285 48.1025C182.285 47.1895 182.285 46.2495 182.285 45.2827C182.285 44.2622 182.258 43.6445 182.204 43.4297L160.29 43.4297L160.29 51.0029C165.661 51.2178 169.797 53.0171 172.697 56.4009C175.651 59.7847 177.128 64.6186 177.128 70.9028C177.128 76.2739 175.947 80.2754 173.583 82.9072C171.22 85.5391 168.508 86.855 165.446 86.855C162.116 86.855 159.538 85.1631 157.712 81.7793C155.939 78.3955 154.355 74.0181 152.958 68.647C151.455 62.8462 149.816 57.8242 148.044 53.5811C146.325 49.2842 144.069 45.981 141.276 43.6714C138.483 41.3618 134.75 40.207 130.078 40.207C125.512 40.207 121.645 41.4155 118.476 43.8325C115.307 46.2495 112.89 49.6602 111.225 54.0645C109.614 58.415 108.808 63.5444 108.808 69.4526Z" fill="#ECF1F7"/>
<path d="M28.5 25L105.5 0L182.5 25V36H28.5V25Z" fill="#ECF1F7"/>
</svg>
